<svg xmlns="http://www.w3.org/2000/svg" version="1.1" xmlns:xlink="http://www.w3.org/1999/xlink" xmlns:svgjs="http://svgjs.com/svgjs" width="1920" height="1080" preserveAspectRatio="none" viewBox="0 0 1920 1080"><g mask="url(&quot;#SvgjsMask1010&quot;)" fill="none"><rect width="1920" height="1080" x="0" y="0" fill="url(#SvgjsLinearGradient1011)"></rect><path d="M1920 0L1217.5900000000001 0L1920 337.34z" fill="rgba(255, 255, 255, .1)"></path><path d="M1217.5900000000001 0L1920 337.34L1920 602.17L885.5700000000002 0z" fill="rgba(255, 255, 255, .075)"></path><path d="M885.5700000000002 0L1920 602.17L1920 898.78L477.91000000000014 0z" fill="rgba(255, 255, 255, .05)"></path><path d="M477.9100000000001 0L1920 898.78L1920 968.38L245.95000000000007 0z" fill="rgba(255, 255, 255, .025)"></path><path d="M0 1080L326.17 1080L0 998.0699999999999z" fill="rgba(0, 0, 0, .1)"></path><path d="M0 998.0699999999999L326.17 1080L670.31 1080L0 483.39z" fill="rgba(0, 0, 0, .075)"></path><path d="M0 483.3900000000001L670.31 1080L1138.87 1080L0 279.1400000000001z" fill="rgba(0, 0, 0, .05)"></path><path d="M0 279.1400000000001L1138.87 1080L1359.3799999999999 1080L0 262.4100000000001z" fill="rgba(0, 0, 0, .025)"></path></g><defs><mask id="SvgjsMask1010"><rect width="1920" height="1080" fill="#ffffff"></rect></mask><linearGradient x1="10.94%" y1="119.44%" x2="89.06%" y2="-19.44%" gradientUnits="userSpaceOnUse" id="SvgjsLinearGradient1011"><stop stop-color="rgba(212, 204, 193, 1)" offset="0"></stop><stop stop-color="rgba(212, 204, 193, 1)" offset="1"></stop></linearGradient></defs></svg>