<svg xmlns="http://www.w3.org/2000/svg" version="1.1" xmlns:xlink="http://www.w3.org/1999/xlink" xmlns:svgjs="http://svgjs.com/svgjs" width="500" height="1000" preserveAspectRatio="none" viewBox="0 0 500 1000"><g mask="url(&quot;#SvgjsMask1033&quot;)" fill="none"><rect width="500" height="1000" x="0" y="0" fill="rgba(212, 204, 193, 1)"></rect><path d="M-91.86 850.98C-8.51 810.74-7.49 531.6 110.55 540.98 228.59 550.36 210.31 990.39 312.96 1096.85" stroke="rgba(192, 184, 173, 1)" stroke-width="2"></path><path d="M-19.4 46.16C59.81 70.2-10.61 122.36 197.69 296.16 405.99 469.96 298.37 885.6 414.78 1040.64" stroke="rgba(192, 184, 173, 1)" stroke-width="2"></path><path d="M-79.01 473.23C-22.4 439.35-73.46 140.82 50.4 243.23 174.26 345.64 103.42 869.13 179.81 1061.69" stroke="rgba(192, 184, 173, 1)" stroke-width="2"></path><path d="M-52.97 941.63C34.98 891.46 36.03 585.34 150.82 591.63 265.62 597.92 251.09 1046.5 354.62 1154.6" stroke="rgba(192, 184, 173, 1)" stroke-width="2"></path><path d="M-9.57 945.72C84.42 870.13 77.09 499.8 188.29 505.72 299.49 511.64 281.3 1018.24 386.15 1150.19" stroke="rgba(192, 184, 173, 1)" stroke-width="2"></path></g><defs><mask id="SvgjsMask1033"><rect width="500" height="1000" fill="#ffffff"></rect></mask></defs></svg>